HIERARCHY
ROOT Hips
{
     OFFSET 14.01120 94.93820 -31.48250
     CHANNELS 6 Xposition Yposition Zposition Zrotation Xrotation Yrotation
     JOINT Spine
     {
          OFFSET -0.00000 11.89050 -0.00000
          CHANNELS 3 Zrotation Xrotation Yrotation
          JOINT Spine1
          {
               OFFSET -0.00000 25.65740 0.12766
               CHANNELS 3 Zrotation Xrotation Yrotation
               JOINT HEad
               {
                    OFFSET -0.00000 8.73416 0.01134
                    CHANNELS 3 Zrotation Xrotation Yrotation
                    End Site
                    {
                         OFFSET -0.29000 12.77420 2.51395
                    }
               }
               JOINT LeftShoulder1
               {
                    OFFSET 8.99000 -0.36225 -0.22000
                    CHANNELS 3 Zrotation Xrotation Yrotation
                    JOINT LeftArm
                    {
                         OFFSET 10.28270 -0.00338 0.32212
                         CHANNELS 3 Zrotation Xrotation Yrotation
                         JOINT LeftForeArm
                         {
                              OFFSET 32.76690 0.09914 -1.42434
                              CHANNELS 3 Zrotation Xrotation Yrotation
                              JOINT LeftHand
                              {
                                   OFFSET 27.56430 0.08536 1.02216
                                   CHANNELS 3 Zrotation Xrotation Yrotation
                                   End Site
                                   {
                                        OFFSET 16.74430 -0.60000 1.50291
                                   }
                              }
                         }
                    }
               }
               JOINT RightShoulder
               {
                    OFFSET -8.99000 -0.36225 -0.22000
                    CHANNELS 3 Zrotation Xrotation Yrotation
                    JOINT RightArm
                    {
                         OFFSET -10.28270 -0.00338 0.32212
                         CHANNELS 3 Zrotation Xrotation Yrotation
                         JOINT RightForeArm
                         {
                              OFFSET -32.89710 0.09914 -1.42434
                              CHANNELS 3 Zrotation Xrotation Yrotation
                              JOINT RightHand
                              {
                                   OFFSET -27.49210 0.08536 1.02216
                                   CHANNELS 3 Zrotation Xrotation Yrotation
                                   End Site
                                   {
                                        OFFSET -16.63120 -0.60000 1.50291
                                   }
                              }
                         }
                    }
               }
          }
     }
     JOINT LeftUpLeg
     {
          OFFSET 8.94580 -8.66707 0.10165
          CHANNELS 3 Zrotation Xrotation Yrotation
          JOINT LeftLeg
          {
               OFFSET -0.00000 -44.42270 1.37270
               CHANNELS 3 Zrotation Xrotation Yrotation
               JOINT LeftFoot
               {
                    OFFSET -0.25355 -42.09240 -1.46059
                    CHANNELS 3 Zrotation Xrotation Yrotation
                    JOINT LeftToes
                    {
                         OFFSET -0.04000 -4.41509 8.49910
                         CHANNELS 3 Zrotation Xrotation Yrotation
                         End Site
                         {
                              OFFSET 0.08000 -0.04745 9.77979
                         }
                    }
               }
          }
     }
     JOINT RightUpLeg
     {
          OFFSET -8.94580 -8.66707 0.10165
          CHANNELS 3 Zrotation Xrotation Yrotation
          JOINT RightLeg
          {
               OFFSET 0.00000 -44.42270 1.37270
               CHANNELS 3 Zrotation Xrotation Yrotation
               JOINT RightFoot
               {
                    OFFSET 0.25355 -42.09240 -1.46059
                    CHANNELS 3 Zrotation Xrotation Yrotation
                    JOINT RightToes
                    {
                         OFFSET 0.04000 -4.41509 8.49910
                         CHANNELS 3 Zrotation Xrotation Yrotation
                         End Site
                         {
                              OFFSET -0.08000 -0.13745 9.77979
                         }
                    }
               }
          }
     }
}
MOTION
Frames: 6
Frame Time: 0.01667
24.49890 81.08240 -1.52511 7.16404 -14.93810 15.36360 -1.99143 16.94740 4.65992 -7.56937 31.83820 23.40870 14.29350 -7.73982 -40.03880 -0.00000 0.00000 -0.00000 -97.44430 -39.34570 -69.87190 -55.73180 52.61410 -83.33900 17.46940 6.43530 -19.11180 -29.13960 -1.50978 5.90007 61.35610 -21.87510 88.69140 -26.90340 -1.89965 6.84138 33.15760 4.53307 -21.93350 1.23870 -35.01970 -13.17940 -32.83790 37.91520 68.28440 7.33769 23.88750 -2.17745 -6.74798 -39.58700 -85.12990 -39.23130 17.87130 16.79570 54.50950 42.05630 -49.44840 -29.22310 10.32420 4.62136 14.25480 -67.52390 13.25380 
23.97150 81.00490 -1.04761 7.22328 -14.46950 16.72690 -2.80746 17.14930 4.19840 -8.67896 31.94510 22.62520 15.76200 -7.67425 -37.16770 -0.00000 0.00000 -0.00000 -98.17930 -38.60610 -70.10400 -55.84820 53.80150 -81.41030 17.07770 6.65053 -18.21910 -26.41620 -1.24382 5.50342 62.99980 -20.95850 86.62900 -31.04480 -5.71513 8.79325 29.20780 7.47581 -13.47530 0.75496 -35.71970 -13.36820 -32.67280 38.83380 67.88960 7.20605 24.19450 -2.16258 -7.11098 -39.93400 -85.60100 -38.38700 18.69730 15.96020 54.85540 41.82760 -50.59870 -29.08280 9.58670 4.40344 13.34260 -67.00340 11.99250 
23.57170 81.03380 -0.54768 7.04408 -14.17250 17.47280 -3.64330 17.45090 3.51430 -9.74793 32.23830 21.31750 15.51720 -7.07585 -33.52660 -0.00000 0.00000 -0.00000 -100.09800 -38.59580 -71.63240 -59.09740 54.89640 -76.11750 17.28590 6.60112 -18.26770 -22.76540 -1.07773 5.97239 66.37760 -20.55310 84.15160 -32.12280 -7.37129 19.58380 23.29150 10.00580 -3.81900 0.74090 -36.16540 -13.13500 -32.44820 39.67170 67.65880 7.01699 24.49880 -2.13068 -7.45115 -40.26280 -86.00940 -37.56450 19.28000 15.52740 54.80320 41.54140 -50.50940 -28.50750 9.43954 4.27330 12.57340 -66.82440 10.76740 
23.35630 81.16070 -0.05254 6.59824 -13.95420 17.49930 -4.39816 17.79580 2.76148 -10.63410 32.63000 19.77570 14.05340 -6.65818 -30.29520 -0.00000 0.00000 -0.00000 -103.24200 -38.82250 -74.38050 -64.80350 55.43780 -68.08330 18.07640 6.30002 -19.15790 -18.65700 -0.89152 6.78563 73.98200 -21.40330 83.61570 -26.05870 -5.65512 40.48270 17.56580 10.82940 1.53787 1.16340 -36.46840 -12.68070 -32.24630 40.35240 67.78320 6.90860 24.62050 -2.10840 -7.83524 -40.68360 -86.30050 -36.98940 19.52170 15.36940 54.50570 41.12080 -49.51070 -27.66280 10.03710 4.28936 12.28020 -67.09870 10.13010 
23.31690 81.35340 0.40323 5.83219 -13.76790 16.91300 -5.01481 18.09900 2.01216 -11.17910 32.98820 18.10730 12.47480 -6.67961 -27.89310 -0.00000 0.00000 -0.00000 -106.86200 -38.67130 -77.74500 -70.48780 55.16340 -59.93020 18.96870 5.93008 -20.24110 -14.01610 -0.59179 7.43831 84.44270 -22.84110 84.67070 -18.18210 2.49892 60.63250 13.43090 10.87000 3.60121 1.98681 -36.75230 -12.26630 -32.13430 40.86650 68.40530 6.99031 24.53830 -2.12587 -8.40729 -41.32250 -86.66410 -36.62110 19.43730 15.32050 54.13410 40.56370 -48.03440 -26.67030 11.25140 4.42083 12.75930 -67.61610 10.68990 
23.42030 81.58530 0.79029 4.71897 -13.65190 15.76360 -5.50977 18.31730 1.28605 -11.33120 33.24460 16.32840 11.50260 -6.89288 -26.04270 -0.00000 0.00000 -0.00000 -110.04900 -38.01680 -81.02030 -74.04140 54.49420 -54.10360 19.42180 5.71564 -20.90200 -8.56751 -0.16332 7.84743 93.48320 -23.94290 84.88880 -9.66873 12.85800 75.93660 11.21970 10.88380 5.20851 3.28221 -37.03110 -11.93180 -32.17970 41.23910 69.56960 7.26164 24.30970 -2.18616 -9.21388 -42.17750 -87.24260 -36.31580 19.01920 15.38510 53.80420 39.97860 -46.29700 -25.54460 12.77480 4.57819 13.72420 -67.87030 12.17730 
